HIERARCHY
ROOT root
{
	OFFSET	0	13.1	24.9
	CHANNELS 6  Xposition Yposition Zposition Xrotation Yrotation Zrotation
	JOINT spine_1
	{
		OFFSET	0	9.99999	0
		CHANNELS 3  Xrotation Yrotation Zrotation
		JOINT spine_2
		{
			OFFSET	0	112	-10
			CHANNELS 3  Xrotation Yrotation Zrotation
			JOINT spine_3
			{
				OFFSET	0	206.5	19.3
				CHANNELS 3  Xrotation Yrotation Zrotation
				JOINT spine_4
				{
					OFFSET	0	110.4	14.6
					CHANNELS 3  Xrotation Yrotation Zrotation
					JOINT neck_1
					{
						OFFSET	0	71.8	-50.3
						CHANNELS 3  Xrotation Yrotation Zrotation
						JOINT neck_2
						{
							OFFSET	0	86.2	-25.8
							CHANNELS 3  Xrotation Yrotation Zrotation
							JOINT head_ee
							{
								OFFSET	0	179.8	-8.7
								CHANNELS 3  Xrotation Yrotation Zrotation
								End Site
								{
									OFFSET	1	0	0
								}
							}
						}
					}
					JOINT left_clavicle
					{
						OFFSET	-43.2	22.4	-70.8
						CHANNELS 3  Xrotation Yrotation Zrotation
						JOINT left_shoulder
						{
							OFFSET	-93.9	-5.79999	48.7
							CHANNELS 3  Xrotation Yrotation Zrotation
							JOINT left_elbow
							{
								OFFSET	-291.4	-30.8	15.2
								CHANNELS 3  Xrotation Yrotation Zrotation
								JOINT left_lowarm_twist
								{
									OFFSET	-110.7	-3.89999	13.6
									CHANNELS 3  Xrotation Yrotation Zrotation
									JOINT left_hand
									{
										OFFSET	-110.7	-3.89999	13.6
										CHANNELS 3  Xrotation Yrotation Zrotation
										JOINT left_ee
										{
											OFFSET	-80.8	-5.10001	12.1
											CHANNELS 3  Xrotation Yrotation Zrotation
											End Site
											{
												OFFSET	1	0	0
											}
										}
									}
								}
							}
						}
					}
					JOINT right_clavicle
					{
						OFFSET	43.2	22.4	-70.8
						CHANNELS 3  Xrotation Yrotation Zrotation
						JOINT right_shoulder
						{
							OFFSET	93.9	-5.79999	48.7
							CHANNELS 3  Xrotation Yrotation Zrotation
							JOINT right_elbow
							{
								OFFSET	291.4	-30.8	15.2
								CHANNELS 3  Xrotation Yrotation Zrotation
								JOINT right_lowarm_twist
								{
									OFFSET	110.7	-3.89999	13.6
									CHANNELS 3  Xrotation Yrotation Zrotation
									JOINT right_hand
									{
										OFFSET	110.7	-3.89999	13.6
										CHANNELS 3  Xrotation Yrotation Zrotation
										JOINT right_ee
										{
											OFFSET	80.8	-5.10001	12.1
											CHANNELS 3  Xrotation Yrotation Zrotation
											End Site
											{
												OFFSET	1	0	0
											}
										}
									}
								}
							}
						}
					}
				}
			}
		}
	}
	JOINT left_hip
	{
		OFFSET	-82.8	-127.5	0.300001
		CHANNELS 3  Xrotation Yrotation Zrotation
		JOINT left_knee
		{
			OFFSET	-28.2	-396.7	2.2
			CHANNELS 3  Xrotation Yrotation Zrotation
			JOINT left_ankle
			{
				OFFSET	-11.7	-411.3	35.4
				CHANNELS 3  Xrotation Yrotation Zrotation
				JOINT left_toes
				{
					OFFSET	0	-60	-88.6
					CHANNELS 3  Xrotation Yrotation Zrotation
					JOINT left_foot_ee
					{
						OFFSET	-22.5	-16.5	-42.2
						CHANNELS 3  Xrotation Yrotation Zrotation
						End Site
						{
							OFFSET	1	0	0
						}
					}
				}
			}
		}
	}
	JOINT right_hip
	{
		OFFSET	82.8	-127.5	0.300001
		CHANNELS 3  Xrotation Yrotation Zrotation
		JOINT right_knee
		{
			OFFSET	28.2	-396.7	2.2
			CHANNELS 3  Xrotation Yrotation Zrotation
			JOINT right_ankle
			{
				OFFSET	11.7	-411.3	35.4
				CHANNELS 3  Xrotation Yrotation Zrotation
				JOINT right_toes
				{
					OFFSET	0	-60	-88.6
					CHANNELS 3  Xrotation Yrotation Zrotation
					JOINT right_foot_ee
					{
						OFFSET	22.5	-16.5	-42.2
						CHANNELS 3  Xrotation Yrotation Zrotation
						End Site
						{
							OFFSET	1	0	0
						}
					}
				}
			}
		}
	}
}
MOTION
Frames: 8
Frame Time: 0.02
3177.02 653.055 -1669.29 -11.1285692868 13.7415121741 3.02009475243 4.17081 -0.166499 0.465766 4.17091 -0.195799 0.454228 4.1693 -0.256846 0.422718 4.1691 -0.186863 0.457976 -10.2762 16.5788 4.00927 -10.5531 28.6287 8.22951 -0.0 0.0 -0.0 -1.8545 4.22661 -2.93356 -24.1917 -15.3352 81.0702 0.741674 -20.1735 0.131937 -5.03774 -0.204507 0.610424 -0.502078 11.1685 1.41713 -0.0 0.0 -0.0 11.9314 13.3319 -24.0884 -11.3075 25.6027 -55.6324 1.64138 39.1113 -0.583074 -23.1534 1.36245 -2.60803 -2.63884 -0.589529 17.6311 0.0 0.0 0.0 32.2955 -16.876 -6.0448 2.84184 -0.127416 -0.417398 -3.80931 26.7828 0.591828 -17.415 0.0 0.0 -0.0 0.0 -0.0 2.55894 6.75273 3.15407 -22.9476 -0.248998 -3.48921 36.1323 15.4834 4.82261 -9.51236 0.0 0.0 0.0 0.0 0.0 
3177.02 653.055 -1669.29 -11.139817549 13.9731930039 3.06705919251 4.17081 -0.166499 0.465766 4.17091 -0.195799 0.454228 4.1693 -0.256846 0.422718 4.1691 -0.186863 0.457976 -10.2762 16.5788 4.00927 -10.5531 28.6287 8.22951 -0.0 0.0 -0.0 -1.8545 4.22661 -2.93356 -24.1917 -15.3352 81.0702 0.741674 -20.1735 0.131937 -5.03774 -0.204507 0.610424 -0.502078 11.1685 1.41713 -0.0 0.0 -0.0 11.9314 13.3319 -24.0884 -11.3075 25.6027 -55.6324 1.64138 39.1113 -0.583074 -23.1534 1.36245 -2.60803 -2.63884 -0.589529 17.6311 0.0 0.0 0.0 32.2955 -16.876 -6.0448 2.84184 -0.127416 -0.417398 -3.80931 26.7828 0.591828 -17.415 0.0 0.0 -0.0 0.0 -0.0 2.55894 6.75273 3.15407 -22.9476 -0.248998 -3.48921 36.1323 15.4834 4.82261 -9.51236 0.0 0.0 0.0 0.0 0.0 
3159.48659006 650.536 -1688.94866567 -10.7264129783 12.188616711 3.23665663525 4.06388 -0.204666 0.26287 4.06389 -0.220979 0.249314 4.06292 -0.253791 0.215823 4.06292 -0.21652 0.253195 -8.04253 16.7173 3.20212 -8.13198 29.0318 6.89955 -0.0 0.0 -0.0 -2.02861 3.70329 -3.34109 -22.1211 -14.4287 81.959 0.773984 -20.9772 0.143292 -4.48156 -0.179299 0.543931 -0.55659 11.1363 1.05687 -0.0 0.0 -0.0 11.6225 13.2355 -23.3893 -10.835 24.9998 -56.7582 1.43357 35.3783 -0.457234 -23.1502 1.36219 -2.60771 -2.78994 -3.20999 17.3769 0.0 0.0 0.0 31.7128 -17.0083 -5.93382 2.19399 -0.0965457 -0.322797 -7.94687 27.8717 1.25098 -17.5966 0.0 0.0 -0.0 0.0 -0.0 2.93897 6.66257 3.19871 -23.5304 -0.237041 -3.57783 35.9557 13.8661 4.75627 -9.39754 0.0 0.0 0.0 0.0 0.0 
3159.41524539 650.536 -1688.88480072 -10.7348617504 12.3932489876 3.27634531619 4.06388 -0.204666 0.26287 4.06389 -0.220979 0.249314 4.06292 -0.253791 0.215823 4.06292 -0.21652 0.253195 -8.04253 16.7173 3.20212 -8.13198 29.0318 6.89955 -0.0 0.0 -0.0 -2.02861 3.70329 -3.34109 -22.1211 -14.4287 81.959 0.773984 -20.9772 0.143292 -4.48156 -0.179299 0.543931 -0.55659 11.1363 1.05687 -0.0 0.0 -0.0 11.6225 13.2355 -23.3893 -10.835 24.9998 -56.7582 1.43357 35.3783 -0.457234 -23.1502 1.36219 -2.60771 -2.78994 -3.20999 17.3769 0.0 0.0 0.0 31.7128 -17.0083 -5.93382 2.19399 -0.0965457 -0.322797 -7.94687 27.8717 1.25098 -17.5966 0.0 0.0 -0.0 0.0 -0.0 2.93897 6.66257 3.19871 -23.5304 -0.237041 -3.57783 35.9557 13.8661 4.75627 -9.39754 0.0 0.0 0.0 0.0 0.0 
3145.11095866 653.553 -1709.98566047 -11.530978168 11.6755661022 3.65657286177 4.17553 -0.142265 0.157182 4.17553 -0.151978 0.14781 4.17514 -0.170978 0.125347 4.17515 -0.149036 0.150777 -10.2835 17.1918 5.98098 -10.5002 28.4839 10.2725 -0.0 0.0 -0.0 -1.36973 2.29726 -2.31449 -19.2485 -14.7843 79.6629 0.787716 -21.3162 0.148246 -4.80751 -0.193994 0.582929 -0.493166 11.2697 1.51641 -0.0 0.0 -0.0 11.7089 12.9458 -23.5915 -12.6605 24.2937 -57.7588 1.27309 32.2363 -0.367911 -23.9212 1.42507 -2.68391 -2.56846 -2.26264 16.3151 0.0 0.0 0.0 32.0559 -17.1059 -6.02586 -0.815416 0.0327157 0.120858 -4.56862 29.5441 0.723058 -16.3416 0.0 0.0 -0.0 0.0 -0.0 2.92941 6.6144 3.42314 -24.4446 -0.216466 -3.71661 36.963 13.5052 4.8426 -9.83517 0.0 0.0 0.0 0.0 0.0 
3115.64045902 657.537 -1757.00588254 -11.3341764413 9.11540102412 3.77392709167 4.69371 -0.0749529 0.114262 4.69372 -0.0820717 0.109261 4.69356 -0.0955273 0.0977148 4.69355 -0.0788962 0.111575 -8.90205 18.2217 7.4715 -8.94819 29.1005 11.6035 -0.0 0.0 -0.0 -1.40246 0.701917 -2.60826 -16.83 -15.1742 77.6882 0.803684 -21.7085 0.154102 -5.96741 -0.248085 0.72102 -0.556318 11.5853 1.24859 -0.0 0.0 -0.0 10.67 11.7318 -21.2839 -15.0065 24.0696 -61.479 0.873603 23.4007 -0.180923 -23.6135 1.39985 -2.6536 -2.40764 -2.75942 14.9616 0.0 0.0 0.0 31.5919 -17.0663 -5.69317 -7.14953 0.227663 1.07291 -1.8897 29.3356 0.297199 -14.4639 0.0 0.0 -0.0 0.0 -0.0 3.97114 7.74903 2.99884 -28.7656 -0.0893635 -4.36742 33.8425 4.86088 4.35809 -9.89899 0.0 0.0 0.0 0.0 0.0 
3094.24043895 664.58 -1784.92882943 -10.485159799 8.4954280378 2.85579198661 4.72352 -0.0407922 0.254071 4.72356 -0.0568766 0.25096 4.72328 -0.0887658 0.24153 4.7232 -0.0495068 0.252517 -8.67389 18.5115 8.85757 -8.62868 28.6269 12.9397 -0.0 0.0 -0.0 -1.72344 1.15452 -3.15814 -16.8733 -14.4694 78.2173 0.793971 -21.4701 0.150528 -6.14168 -0.256453 0.741673 -0.484403 10.4296 1.21833 -0.0 0.0 -0.0 10.6116 10.9321 -21.1673 -16.9397 23.3346 -61.7593 0.666238 18.2648 -0.107101 -24.1471 1.44369 -2.70607 -2.1051 -1.10573 13.6825 0.0 0.0 0.0 30.797 -16.3837 -4.00563 -11.6272 0.301446 1.75586 7.0945 28.3106 -1.08509 -13.4085 0.0 0.0 -0.0 0.0 -0.0 4.38231 11.5946 3.39589 -30.4306 -0.0273322 -4.61541 32.5143 -3.23314 4.15516 -8.90228 0.0 0.0 0.0 0.0 0.0 
3094.75758199 664.58 -1785.29728073 -10.4783125982 8.24387511774 2.80875138145 4.72352 -0.0407922 0.254071 4.72356 -0.0568766 0.25096 4.72328 -0.0887658 0.24153 4.7232 -0.0495068 0.252517 -8.67389 18.5115 8.85757 -8.62868 28.6269 12.9397 -0.0 0.0 -0.0 -1.72344 1.15452 -3.15814 -16.8733 -14.4694 78.2173 0.793971 -21.4701 0.150528 -6.14168 -0.256453 0.741673 -0.484403 10.4296 1.21833 -0.0 0.0 -0.0 10.6116 10.9321 -21.1673 -16.9397 23.3346 -61.7593 0.666238 18.2648 -0.107101 -24.1471 1.44369 -2.70607 -2.1051 -1.10573 13.6825 0.0 0.0 0.0 30.797 -16.3837 -4.00563 -11.6272 0.301446 1.75586 7.0945 28.3106 -1.08509 -13.4085 0.0 0.0 -0.0 0.0 -0.0 4.38231 11.5946 3.39589 -30.4306 -0.0273322 -4.61541 32.5143 -3.23314 4.15516 -8.90228 0.0 0.0 0.0 0.0 0.0 
